<?xml version="1.0" encoding="UTF-8" standalone="no"?>
<svg
   width="55.275002mm"
   height="36.019001mm"
   version="1.1"
   id="svg3"
   sodipodi:docname="fork-me-on-github.svg"
   xml:space="preserve"
   inkscape:version="1.4 (1:1.4+202410161351+e7c3feb100)"
   xmlns:inkscape="http://www.inkscape.org/namespaces/inkscape"
   xmlns:sodipodi="http://sodipodi.sourceforge.net/DTD/sodipodi-0.dtd"
   xmlns="http://www.w3.org/2000/svg"
   xmlns:svg="http://www.w3.org/2000/svg"><defs
     id="defs3" /><sodipodi:namedview
     id="namedview3"
     pagecolor="#ffffff"
     bordercolor="#000000"
     borderopacity="0.25"
     inkscape:showpageshadow="2"
     inkscape:pageopacity="0.0"
     inkscape:pagecheckerboard="0"
     inkscape:deskcolor="#d1d1d1"
     showgrid="false"
     inkscape:zoom="6.4242424"
     inkscape:cx="105.07075"
     inkscape:cy="62.10849"
     inkscape:window-width="1920"
     inkscape:window-height="1003"
     inkscape:window-x="0"
     inkscape:window-y="40"
     inkscape:window-maximized="1"
     inkscape:current-layer="g8"
     inkscape:document-units="mm" /><g
     id="g15"
     inkscape:label="all"
     transform="translate(-15.381511,44.214691)"><rect
       width="155.73369"
       height="98.213409"
       id="rect1"
       style="display:inline;opacity:1;stroke-width:1"
       ry="0"
       x="42.266304"
       y="-28.213409"
       inkscape:label="background_rect" /><rect
       x="108"
       y="10"
       width="80"
       height="50"
       rx="4"
       fill="#f7971d"
       id="rect2"
       inkscape:label="orange_rect"
       ry="4" /><g
       transform="matrix(0.1,0,0,0.1,86.85,30.15)"
       stroke-width="10"
       id="g3"
       inkscape:label="hub"><path
         d="m 175.45922,27.290004 c -0.5,-0.2 -1.1,-0.3 -1.7,-0.3 -2.4,-0.2 -5.4,0.7 -6.8,1.9 l 0.3,-9.7 h -5.7 v 30.1 h 5.3 v -1.7 c 2.5,1.4 4.3,2.1 6.6,2.1 6.6,-0.5 9.3,-6.4 9.3,-11.6 -0.1,-5.2 -2.3,-9.7 -7.3,-10.8 z m -3.2,17.9 c -3.5,0 -5,-4.1 -5,-7.3 0,-3.2 1.1,-6.5 4.8,-6.5 3.7,0 4.8,4.1 4.8,7 0,3.2 -1.1,6.8 -4.6,6.8 z"
         id="path1-6"
         style="stroke-width:0.1"
         inkscape:label="b"
         sodipodi:nodetypes="cccccccccccsssss"
         transform="matrix(10,0,0,10,-868.5,-301.5)" /><path
         d="m 152.31753,36.50792 c 0,3.1 -0.2,5 -0.5,5.8 -0.8,1.8 -2.4,2.8 -4.2,2.9 -1.8,-0.1 -2.6,-1 -3.3,-2.3 -0.2,-0.7 -0.3,-2.6 -0.3,-5.6 v -10 h -5.8 v 13.8 c -0.1,4.9 2.5,8.4 7.3,8.4 2.6,0 5.4,-0.9 7.2,-2.8 v 2.3 h 5.3 v -21.7 h -5.7 z"
         id="path1-3"
         style="stroke-width:0.1"
         inkscape:label="u"
         transform="matrix(10,0,0,10,-868.5,-301.5)"
         sodipodi:nodetypes="scccscccscccccs" /><path
         d="m 413.44965,-33.550342 c -28,-1 -59,6 -74,20 v -97.999998 h -57 v 300 h 57 V 79.449658 c 0,-18 2,-32 5,-41 9,-18 24,-28 43,-28 16,0 25,8 32,20 2,6 3,21 3,44 V 189.44966 h 58 V 61.449658 c 0,-20 -1,-34 -3,-43 -12,-34 -36,-51 -64,-52"
         id="path2"
         inkscape:label="h"
         sodipodi:nodetypes="ccccccscscsccscc" /><path
         d="m 887,-30 c -5,-2 -11,-3 -17,-3 -24,-2 -54,7 -68,19 l 3,-97 h -57 v 301 h 53 v -17 c 25,14 43,21 66,21 66,-5 93,-64 93,-116 -1,-52 -23,-97 -73,-108 z m -32,179 c -35,0 -50,-41 -50,-73 0,-32 11,-65 48,-65 37,0 48,41 48,70 0,32 -11,68 -46,68 z M 655,64 c 0,31 -2,50 -5,58 -8,18 -24,28 -42,29 -18,-1 -26,-10 -33,-23 -2,-7 -3,-26 -3,-56 V -28 h -58 v 138 c -1,49 25,84 73,84 26,0 54,-9 72,-28 v 23 h 53 V -28 H 655 Z M 414,-33 c -28,-1 -59,6 -74,20 v -98 h -57 v 300 h 57 V 80 c 0,-18 2,-32 5,-41 9,-18 24,-28 43,-28 16,0 25,8 32,20 2,6 3,21 3,44 v 115 h 58 V 62 c 0,-20 -1,-34 -3,-43 -12,-34 -36,-51 -64,-52"
         id="path15"
         inkscape:label="hub"
         sodipodi:nodetypes="cccccccccccsssssscccscccscccccsccccccscscsccscc"
         style="opacity:0.509" /></g><g
       id="g6"
       inkscape:label="Git"
       style="display:inline"><path
         id="path3"
         style="fill:#ffffff;fill-opacity:1;stroke:none;stroke-width:5.66929;stroke-linecap:round;stroke-opacity:1"
         d="m 87.604763,28.649241 3.423743,-0.953404 0.02874,-6.243679 6.59569,0.01262 -0.0013,5.985195 4.776144,0.0036 0.0383,5.523378 -4.804943,-0.0119 -0.106104,9.043682 c -0.0075,0.640847 0.955791,1.476501 1.441665,1.597007 1.282072,0.317977 3.330702,0.08253 3.330702,0.08253 l 0.11794,4.784948 c 0,0 -1.6993,0.845961 -4.525543,0.777722 -5.118242,-0.123577 -6.961562,-4.133687 -6.948504,-5.779124 l 0.08299,-10.457505 -3.449522,0.01231 z"
         sodipodi:nodetypes="ccccccccssccssccc"
         inkscape:label="t" /><g
         id="g5"
         inkscape:label="i"><path
           id="rect3"
           style="fill:#ffffff;fill-opacity:1;stroke:none;stroke-width:5.66929;stroke-linecap:round;stroke-opacity:1"
           d="m 85.343369,48.671943 -6.621308,0.04777 -0.0088,-21.229555 6.637757,-0.02189 z"
           sodipodi:nodetypes="ccccc"
           inkscape:label="i-body" /><circle
           style="fill:#ffffff;fill-opacity:1;stroke:none;stroke-width:5.66929;stroke-linecap:round;stroke-opacity:1"
           id="path4"
           cx="82.07193"
           cy="21.987028"
           r="3.6580188"
           inkscape:label="i-punkt" /></g><path
         id="path5"
         style="display:inline;fill:#ffffff;fill-opacity:1;stroke:none;stroke-width:5.66929;stroke-linecap:round;stroke-opacity:1"
         d="m 54.724847,20.828689 c 3.290047,-3.796919 6.848773,-4.644835 13.366549,-4.42295 2.948092,0.100362 6.217627,1.561563 6.217627,1.561563 l -1.439704,5.752599 c 0,0 -5.442315,-1.58858 -8.272594,-0.931914 -4.19122,0.972425 -5.292361,3.737381 -5.690314,5.210083 -0.432856,1.601869 -0.617109,4.790525 -0.407687,7.58346 0.115622,1.541989 1.548685,5.605669 4.362855,7.063625 1.649321,0.854475 5.69188,-0.165944 5.69188,-0.165944 l 0.289911,-6.046064 -4.597724,0.0089 0.03009,-5.974838 11.074079,-0.02189 0.01593,16.841098 c 0,0 -5.475279,2.354713 -9.79381,2.139674 -4.130959,-0.2057 -7.389824,-1.287484 -9.685365,-3.376965 -3.311821,-3.014533 -3.980035,-6.972277 -4.13434,-9.151894 -0.28928,-4.699316 -0.109336,-12.511727 2.972613,-16.068489 z"
         sodipodi:nodetypes="ssccssssccccccssss"
         inkscape:label="G" /></g><g
       id="g8"
       inkscape:label="Fork-me-on"
       transform="translate(2.3505503,-9.228212)"
       style="opacity:1"><path
         id="path10"
         style="display:inline;fill:#ffffff;fill-opacity:1;stroke:none;stroke-width:5.66929;stroke-linecap:round;stroke-opacity:1"
         d="m 161.08217,-4.2876664 -0.0181,1.567912 c 0,0 0.3994,-0.6490114 1.62928,-1.4242027 0.8961,-0.5648068 2.25614,-0.4606786 3.5297,-0.288604 0.6828,0.092256 2.37651,1.4073572 2.38404,3.0283076 l 0.037,7.9604256 -2.00296,-0.052774 -0.1125,-7.30931675 c -0.0115,-0.74598585 -0.92368,-1.85203655 -2.18347,-1.87196335 -1.27565,-0.020178 -1.99002,0.4078614 -2.44704,0.9361414 -0.41255,0.4768783 -0.62814,1.03034519 -0.63154,1.49995302 l -0.049,6.77833418 -2.07085,0.01261 -0.0836,-10.8230107 z"
         sodipodi:nodetypes="ccsssccsssscccc"
         inkscape:label="n" /><path
         id="path12"
         style="opacity:1;display:inline;fill:#ffffff;fill-opacity:1;stroke:none;stroke-width:5.66929;stroke-linecap:round;stroke-opacity:1"
         inkscape:label="o"
         d="m 151.85764,-4.6089629 c -1.53035,-0.011779 -2.96997,0.6728373 -3.92144,1.5846882 -1.15357,1.1055332 -1.66273,2.59080339 -1.68539,4.161037 -0.0223,1.5448554 0.28712,2.7302016 1.16637,3.7508719 1.05936,1.2297502 2.83169,2.1413555 4.34281,2.1127779 1.36796,-0.02587 3.00442,-0.5911197 4.09662,-1.6947107 1.00854,-1.0190631 1.5272,-2.5057583 1.54205,-4.2506019 0.0164,-1.93260771 -0.77584,-3.4514119 -1.8907,-4.3962719 -1.04543,-0.8860115 -2.37215,-1.257953 -3.65032,-1.2677905 z m 0.2528,1.9660967 c 0.96967,0.00278 1.6849,0.4189434 2.25189,1.164909 0.55703,0.73285959 0.97436,1.78809718 0.97361,2.6315606 -8.4e-4,0.9485892 -0.2501,1.8159774 -0.7923,2.508022 -0.58967,0.7526244 -1.51871,1.2907521 -2.66646,1.3153491 -1.14552,0.024549 -2.17735,-0.4252646 -2.7968,-1.2902053 -0.46545,-0.6499163 -0.68114,-1.5342142 -0.6312,-2.6277634 0.0632,-1.38453764 0.56554,-2.2701183 1.29189,-2.8663147 0.63321,-0.5197556 1.42736,-0.8382546 2.36937,-0.8355573 z"
         sodipodi:nodetypes="ssssssssssssssssss" /><path
         id="path9"
         style="display:inline;fill:#ffffff;fill-opacity:1;stroke:none;stroke-width:5.66929;stroke-linecap:round;stroke-opacity:1"
         inkscape:label="e"
         d="m 135.09943,-4.6362853 c -1.64729,-0.039217 -2.49644,0.4701333 -3.15576,0.9120634 -1.38483,0.928221 -2.38827,2.72882782 -2.35187,4.71055002 0.0175,0.95467158 0.12329,1.88319598 0.50531,2.72758848 0.8358,1.8473874 2.57705,3.2399707 4.66656,3.2548334 4.07762,0.029004 5.25977,-3.0917969 5.25977,-3.0917969 L 138.1582,2.9121094 c 0,0 -0.90488,2.0349232 -2.9053,2.0309032 -3.21089,-0.00645 -3.48849,-3.3483958 -3.48849,-3.3483958 l 8.35278,-0.030164 c 0,0 0.36175,-3.2560237 -1.58399,-4.9160156 -0.75949,-0.647948 -1.83895,-1.2467546 -3.43377,-1.2847228 z m -0.2079,1.9978886 c 3.04583,0.039472 3.00604,2.41869313 3.00604,2.41869313 l -5.95964,-0.0315968 c 0,0 0.61291,-2.41742978 2.9536,-2.38709638 z"
         sodipodi:nodetypes="sscssccsccsssccs" /><path
         id="path8"
         style="display:inline;fill:#ffffff;fill-opacity:1;stroke:none;stroke-width:5.66929;stroke-linecap:round;stroke-opacity:1"
         d="m 113.4662,-4.2819673 -0.01,1.6071134 c 0,0 0.28038,-0.5627773 0.84206,-1.0292714 0.29941,-0.2486728 0.96944,-0.83741 1.99966,-0.828877 0.55179,0.00457 1.42381,-0.1221134 2.16966,0.2299673 1.24133,0.5859662 1.65133,1.6145834 1.65133,1.6145834 0,0 0.47417,-0.4519583 1.0522,-0.9797983 0.55936,-0.5107845 1.51388,-0.8005207 1.85466,-0.8253176 0.90812,-0.066078 2.06064,-0.1128772 2.62084,0.1521303 1.11899,0.5293488 2.18202,1.5784676 2.18611,3.63495469 l 0.0144,7.25918871 -2.15561,4.762e-4 0.0227,-6.93955825 c 0.004,-1.23616255 -0.52416,-1.76833385 -1.26057,-2.03459425 -0.8583,-0.3103339 -1.62699,-0.2918387 -2.34783,0.1658015 -0.69173,0.4391632 -1.31041,1.60941088 -1.31578,2.17352918 l -0.0639,6.71406582 -2.13808,2.737e-4 -0.0504,-7.39013263 c -0.003,-0.38475017 -0.37152,-1.26943497 -0.87232,-1.57379787 -0.28851,-0.1753422 -0.87582,-0.3539025 -1.2357,-0.3442884 -0.50091,0.013382 -0.75155,-0.011819 -1.18314,0.1994328 -0.75372,0.3689296 -1.53349,1.3096256 -1.54406,1.98892589 l -0.11049,7.10291911 -2.28586,0.00121 0.0298,-10.9183428 z"
         sodipodi:nodetypes="ccssscssssccssssccssssscccc"
         inkscape:label="m" /><path
         id="path7"
         style="display:inline;opacity:1;fill:#ffffff;fill-opacity:1;stroke:none;stroke-width:5.66929;stroke-linecap:round;stroke-opacity:1"
         d="m 98.001601,-9.1406551 0.06701,9.34384909 4.656984,-4.47773399 2.5415,0.00864 -4.21423,4.33024959 4.47998,6.43668791 -2.57888,-0.034507 -3.392505,-4.8389258 -1.584669,1.5649849 0.03432,3.3144757 -2.165785,-0.015885 -0.02622,-15.645549 z"
         sodipodi:nodetypes="ccccccccccccc"
         inkscape:label="k" /><path
         id="path6"
         style="display:inline;fill:#ffffff;fill-opacity:1;stroke:none;stroke-width:5.66929;stroke-linecap:round;stroke-opacity:1"
         d="m 89.76491,-4.2745399 2.17e-4,1.8001214 c 0,0 0.601052,-1.0114673 1.207964,-1.4249992 0.498946,-0.3399674 1.089511,-0.6721979 2.046764,-0.6808988 0.768451,-0.00698 1.52886,0.4002387 1.52886,0.4002387 l -0.691654,1.9963723 c 0,0 -0.771994,-0.1977224 -1.680492,-0.1077265 -0.4555,0.045122 -1.083949,0.478905 -1.537929,0.9397461 -0.501014,0.50858567 -0.779963,1.09102892 -0.781351,1.59617927 l 0.01019,6.31957023 -2.212764,0.027752 0.08956,-10.8576099 z"
         sodipodi:nodetypes="ccssccssscccc"
         inkscape:label="r" /><path
         id="path11"
         style="display:inline;fill:#ffffff;fill-opacity:1;stroke:none;stroke-width:5.66929;stroke-linecap:round;stroke-opacity:1"
         inkscape:label="o"
         d="m 80.560547,-4.6601562 c -1.530359,-0.011779 -2.969979,0.6728373 -3.921447,1.5846882 -1.153565,1.1055332 -1.662731,2.5908034 -1.685385,4.161037 -0.02229,1.5448554 0.287117,2.7302016 1.166367,3.7508719 1.05936,1.2297502 2.831692,2.1413555 4.342809,2.1127779 1.367961,-0.02587 3.00442,-0.5911197 4.096619,-1.6947107 1.008543,-1.0190631 1.527207,-2.5057583 1.542052,-4.2506019 0.01644,-1.9326077 -0.775843,-3.4514119 -1.890704,-4.3962719 -1.045425,-0.8860115 -2.372146,-1.257953 -3.650311,-1.2677905 z m 0.2528,1.9660967 c 0.969661,0.00278 1.684894,0.4189434 2.251883,1.164909 0.557028,0.7328596 0.974362,1.78809719 0.973612,2.6315606 -8.43e-4,0.9485892 -0.250097,1.8159774 -0.7923,2.508022 -0.589666,0.7526244 -1.518705,1.2907521 -2.666464,1.3153491 -1.145519,0.024549 -2.177342,-0.4252646 -2.796794,-1.2902053 -0.465456,-0.6499163 -0.681143,-1.5342142 -0.631199,-2.6277634 0.06323,-1.38453763 0.565539,-2.2701183 1.291884,-2.8663147 0.633217,-0.5197556 1.427367,-0.8382546 2.369378,-0.8355573 z"
         sodipodi:nodetypes="ssssssssssssssssss" /><path
         id="path1"
         style="display:inline;fill:#ffffff;fill-opacity:1;stroke:none;stroke-width:5.66929;stroke-linecap:round;stroke-opacity:1"
         d="m 74.273983,-9.1268964 0.02182,1.9888962 -7.122484,0.045454 -0.03732,5.0001965 6.415665,0.027445 -0.02062,1.88532588 -6.402498,-0.0499915 -0.0045,6.72760612 -2.058082,0.00455 0.02842,-15.6156715 z"
         sodipodi:nodetypes="ccccccccccc"
         inkscape:label="F" /></g></g></svg>
