<?xml version="1.0" encoding="UTF-8" standalone="no"?>
<!-- Created with Inkscape (http://www.inkscape.org/) -->

<svg
   version="1.1"
   id="svg1"
   width="104.96"
   height="121.28"
   viewBox="0 0 104.96 121.28"
   sodipodi:docname="Nischl.svg"
   inkscape:version="1.4 (1:1.4+202410161351+e7c3feb100)"
   xmlns:inkscape="http://www.inkscape.org/namespaces/inkscape"
   xmlns:sodipodi="http://sodipodi.sourceforge.net/DTD/sodipodi-0.dtd"
   xmlns="http://www.w3.org/2000/svg"
   xmlns:svg="http://www.w3.org/2000/svg">
  <defs
     id="defs1" />
  <sodipodi:namedview
     id="namedview1"
     pagecolor="#ffffff"
     bordercolor="#000000"
     borderopacity="0.25"
     inkscape:showpageshadow="2"
     inkscape:pageopacity="0.0"
     inkscape:pagecheckerboard="0"
     inkscape:deskcolor="#d1d1d1"
     showgrid="false"
     inkscape:zoom="2.8714553"
     inkscape:cx="57.462152"
     inkscape:cy="33.432525"
     inkscape:window-width="1920"
     inkscape:window-height="1003"
     inkscape:window-x="0"
     inkscape:window-y="40"
     inkscape:window-maximized="1"
     inkscape:current-layer="svg1" />
  <g
     inkscape:groupmode="layer"
     id="layer1"
     inkscape:label="Paths"
     style="display:inline">
    <path
       id="path2-9"
       style="display:inline;fill:#ff0000;fill-opacity:1;stroke:none;stroke-width:0;stroke-linecap:round;stroke-dasharray:none;stroke-opacity:1"
       inkscape:label="p4"
       d="m 50,7.9453125 c -0.993132,-0.073803 -1.958754,0.4540164 -2.376953,0.8964844 -0.596447,0.6310597 -0.42672,1.143212 -0.914063,1.4433591 -0.248662,0.153147 -1.324869,-0.4541387 -2.228515,0.335938 -1.793449,1.568048 -2.728173,3.067867 -4.001953,4.43164 -1.246818,1.334907 -2.65977,2.139069 -3.03125,2.251954 -4.698748,1.427817 -6.083985,3.144531 -6.083985,3.144531 0,0 0.192857,-5.274333 0.951172,-5.533203 0.769192,-0.262583 2.171408,-0.931152 2.421875,-1.837891 0.279609,-1.012236 -0.613571,-1.254636 -1.36914,-1.478516 -1.949681,-0.577703 -5.605353,1.297347 -8.716797,2.962891 -1.020815,0.546439 -1.931243,1.093663 -2.65625,1.570312 -2.934828,1.929474 -5.651002,4.902566 -8.033203,7.638672 -2.382204,2.736107 -3.841362,4.805526 -6.648438,7.996094 -3.1524173,3.583088 -6.0129195,5.230655 -6.46484375,7.265625 -0.84833419,3.819965 4.81360005,10.376148 7.17187495,12.919922 3.2041258,3.456159 4.3139528,2.360717 3.8691408,5.716797 -0.152741,1.152424 -0.83315,2.591757 -1.074219,4.6875 -0.500682,4.352697 -0.404919,10.667157 1.146485,17.02539 2.04542,8.382914 8.792968,14.84375 8.792968,14.84375 L 2.9082031,94.113281 2.75,119.08008 l 100.78516,0.31054 0.16992,-25.064448 -8.482424,0.09766 c 0,0 2.134696,-2.714834 5.292964,-6.86914 2.89509,-3.808071 6.40563,-7.384482 6.23047,-11.251954 -0.0698,-1.541849 -7.379305,-6.51604 -8.437496,-8.125 -1.005692,-1.529136 -1.021468,-3.018512 -1.146485,-3.439453 -0.07891,-0.265689 -1.527977,-1.283959 -1.894531,-0.677734 -0.427615,0.707216 -0.416642,2.311247 -0.445312,2.998047 -0.02406,0.576333 0.534935,1.187082 0.378906,1.609375 -0.230449,0.623711 -4.296305,-0.09767 -4.851563,-0.277344 -1.261783,-0.408294 -1.924108,-0.470384 -3.02539,-1.355469 -0.648772,-0.521408 -0.995441,-1.817538 -1.464844,-3.08789 -1.098022,-2.971581 0.03202,-2.991953 0.07422,-4.330078 0.03245,-1.028926 -0.756132,-2.182271 -1.730469,-2.541016 -1.505417,-0.554286 -3.004041,-0.10003 -2.962891,0.71875 0.05709,1.135879 0.808141,1.34181 1.449219,3.339844 0.646852,2.016034 0.01659,3.102883 0.669922,4.376953 0.832463,1.623404 2.543042,2.680601 0.953125,3.220703 -1.020723,0.346744 -1.8008,0.761625 -2.755859,0.902344 -0.554219,0.08166 -1.072285,-1.107584 -1.703125,-1.703125 -0.483165,-0.45613 -1.613022,-1.092143 -2.164063,-1.265625 -1.85831,-0.585045 -2.050781,-2.986332 -2.050781,-2.986328 0,-10e-7 -1.523943,2.26745 -0.839844,4.251953 0.454126,1.317374 1.529619,2.117389 1.574219,3.361328 0.02216,0.618153 -1.29786,2.131593 -0.835938,3.046875 0.258637,0.512482 0.823748,0.689888 1.392579,0.736328 0.30557,0.02495 0.554553,-0.0676 0.93164,0.06641 1.211081,0.43039 1.510742,0.504392 2.681641,0.976563 1.107441,0.446581 3.27024,0.325796 4.3125,0.638671 1.822641,0.54714 3.18262,0.324043 4.126953,0.167969 2.314207,-0.382478 4.447045,-0.393238 4.890625,1.361328 0.282019,1.115517 -0.735287,3.155822 -0.525391,5.035157 0.395049,3.537127 -2.115287,6.040866 -3.779297,6.15039 -2.974069,0.195752 -5.113539,0.857177 -6.242187,1.486328 -1.419947,0.791532 -2.344222,1.48786 -2.939453,3.271485 -0.283161,-0.319023 -0.627714,-0.665171 -1.085938,-1.058594 -0.394824,-0.338991 -0.15208,-1.712062 -0.460937,-3.775391 -0.352968,-2.358011 -1.345002,-5.550841 -3.449219,-7.984375 -0.759601,-0.878483 -0.38192,-1.628205 0.03125,-2.376953 0.398245,-0.7217 0.551897,-1.283258 0.238281,-1.83789 -3.628874,-6.417683 -4.660575,-5.447294 -4.833984,-5.580078 -2.994347,-2.292924 -3.714844,-4.197266 -3.714844,-4.197266 2.713546,-0.641436 5.990271,5.466481 5.925781,4.009766 -0.07985,-1.803675 -0.586607,-2.916889 -0.83789,-3.742188 -0.298576,-0.980625 -1.248079,-1.666969 -0.451172,-3.091797 0.208431,-0.372664 1.859375,2.113281 1.859375,2.113281 0.372498,-1.200791 2.569187,-5.989894 1.876953,-9.916015 -0.109862,-0.623099 1.623982,-0.796441 0.541016,-3.923828 -0.465786,-1.345097 -0.319868,0.01774 -1.580079,2.46875 -0.06855,0.133322 -0.778961,-2.832781 -1.710937,-2.41211 -1.20291,0.542964 1.921764,3.417205 0.607422,4.78125 -0.57213,0.593766 -1.070242,0.879222 -1.582031,1.90625 -0.330228,0.662682 0.212428,1.51764 -0.212891,1.642578 -0.477385,0.140234 -1.690778,-2.493965 -4.224609,-3.083984 -1.227777,-0.285896 -1.562717,0.295138 -2.777344,-0.693359 -0.689415,-0.561066 -0.396746,-1.77577 -1.378906,-1.882813 -1.616728,-0.176203 -2.373738,0.259591 -3.744141,0.4375 -1.255805,0.163032 -1.46083,-0.704557 -1.019531,-1.837891 0.112479,-0.288862 -0.494193,-0.410695 -0.605469,-0.75 -0.361506,-1.102311 -0.448113,-1.972462 0.841797,-2.152343 0.988812,-0.137892 3.648656,-0.491137 6.34375,0.753906 0.97306,0.44952 1.146173,1.021607 2.755859,2.451172 2.43121,1.878234 6.888772,4.55892 3.75,0.140625 -0.25149,-0.996344 -0.414891,-1.515324 -0.6875,-2.13086 -0.200478,-0.452669 -0.435501,-1.022197 -0.666015,-1.603515 -0.211346,-0.53298 -0.404546,-1.102416 -0.859375,-1.009766 -0.940327,0.191546 -0.511912,0.01551 -1.720703,0.716797 -0.202535,0.117502 -0.843619,-1.051016 -0.734376,-1.876953 0.114841,-0.868247 -0.01212,-0.756716 -0.580078,-1.447266 -0.844307,-1.026546 -2.348433,-2.772249 -2.9375,-3.632812 0,0 -1.240364,0.150247 -0.693359,1.804687 0.189063,0.571826 0.963395,1.040546 1.275391,1.675782 0.532106,1.083385 0.550247,2.236544 0.05469,2.208984 -0.585863,-0.03258 -1.24724,-0.802962 -1.757812,-1.177734 -0.651966,-0.478559 -1.139521,-0.612573 -1.794922,-0.990235 -0.922131,-0.53136 -2.597799,-0.69454 -3.960938,-0.75 -1.918071,-0.07804 -4.050781,0.701172 -4.050781,0.701172 0,0 0.226182,-1.568754 1.478516,-2.078125 0.580029,-0.235914 1.070854,0.293783 1.455078,-0.144531 0.681519,-0.777462 1.134016,-1.347686 1.357422,-1.974609 0.0972,-0.272763 -0.488574,-1.528129 -0.94336,-2.296876 -0.469194,-0.7931 -0.986328,-1.1875 -0.986328,-1.1875 -1.854948,0.322444 -2.553976,2.679111 -4.050781,4.699219 -0.168876,0.227916 -1.578699,0.561431 -2.693359,1.042969 -0.675275,0.291721 -1.133396,0.666128 -1.455079,1.025391 -0.73584,0.821806 -1.483284,2.009 -2.302734,2.751953 -1.380959,1.252045 -3.360022,1.399094 -4.367187,2.482422 -1.600069,1.721063 -0.411694,1.586284 -0.791016,1.738281 -0.842722,0.337683 -1.50328,-1.418815 -1.914063,-2.769531 -0.352294,-1.158393 -0.777103,-3.099533 -0.880859,-3.933594 -0.07709,-0.619713 1.097557,-0.509903 2.210938,-0.982422 0.781958,-0.331865 1.03017,-0.978709 1.80664,-0.949219 0.614202,0.02332 0.703607,1.402679 2.580078,0.707031 2.027584,-0.751668 5.822362,-2.58965 6.777344,-3.224609 0.513523,-0.341438 2.827482,-1.055181 5.441406,-3.958984 1.578465,-1.753514 0.221999,-2.061256 0.613282,-3.808594 0.03627,-0.161955 0.47955,0.609582 1.230468,0.863281 0.754061,0.254761 1.815218,-0.0063 2.208985,0.72461 0.599634,1.113071 -0.112486,1.197165 0.589843,2.410156 0.330667,0.571094 1.577007,2.838561 6.40625,5.445312 0.184371,0.09952 2.341676,1.729562 4.263672,2.191407 1.778252,0.427304 3.366459,-0.267673 2.876953,-1.439453 0,-10e-7 -1.868078,0.727393 -2.320312,0.449218 -2.282488,-1.403988 -4.594192,-2.375476 -3.804688,-2.472656 0,0 1.5107,-0.410689 3.388672,-0.318359 1.877971,0.09233 3.34375,0.988281 3.34375,0.988281 0,0 -0.01882,-1.476756 -1.302734,-2.167969 -0.376148,-0.202505 -1.609375,-1.410156 -1.609375,-1.410156 0,0 -0.930518,-0.955708 4.001953,1.105469 1.486567,0.621206 3.154297,6.015625 3.154297,6.015625 0,0 1.353324,-2.511401 -0.726563,-5.611329 -0.595658,-0.887785 0.886172,-0.846381 0.451172,-2.984374 -0.215885,-1.06106 -0.235079,-1.183478 -0.623047,-2.556641 -0.205097,-0.7259 0.414619,-0.859172 -0.113281,-1.962891 0,0 -0.5792,0.573609 -1.28125,0.298828 -0.899287,-0.35198 0.440814,-0.657276 -0.554687,-0.996093 -0.666542,-0.226856 -1.611436,-0.717043 -2.402344,-1.359375 -0.774274,-0.628822 -1.391256,-1.409154 -2.398438,-1.638672 -0.395831,-0.0902 -1.454076,0.598875 -3.205078,0.958984 -1.044649,0.214841 -3.527424,-0.4257 -3.982422,-0.5 -0.99852,-0.163068 -3.507812,-1.027344 -3.507812,-1.027344 0,0 0.945092,-0.33378 1.376953,-0.550781 0.632163,-0.317647 1.421353,-0.56596 1.992187,-0.65625 1.019605,-0.161272 0.597657,1.701172 0.597657,1.701172 1.581035,-0.196373 4.388645,-1.548076 5.96875,-1.441406 1.026626,0.06931 3.160987,0.965963 4.947265,3.455078 0,0 0.264227,-1.592626 -0.0078,-2.183594 -0.168333,-0.365665 -3.159181,-2.722164 -7.859375,-4.177734 -1.517659,-0.469993 -1.670419,-0.01996 -2.164063,0.08789 -0.29318,0.06405 -1.237258,-0.03605 -1.921875,0.0957 -0.719067,0.138391 -1.197737,0.516527 -1.4375,0.441407 C 59.833514,25.587545 59.760283,25.63244 57.685547,24.960938 56.82049,24.680955 53.553085,24.747513 51.25,25.076172 c -1.206788,0.172213 -1.871633,0.627252 -2.347656,0.544922 -1.271214,-0.219856 -0.378894,-1.671841 -1.486328,-1.875 -0.797008,-0.146211 -1.003071,0.846262 -2.367188,0.652344 -1.147493,-0.163123 -1.897275,-0.08664 -2.589844,0.570312 -0.814347,0.772468 -0.751482,1.967705 -2.490234,1.953125 -1.050447,-0.0088 -1.500022,0.04044 -2.25,1.212891 -1.707511,2.669368 -1.345473,4.081571 -1.070312,4.578125 -0.72846,-0.871261 -2.27057,-2.309779 0.662109,-5.732422 1.394818,-1.627851 3.238366,-3.049752 3.728515,-3.9375 0.279855,-0.506866 0.428135,-1.038831 0.427735,-1.650391 -2.7e-4,-0.408109 -0.203888,-0.936795 0.02148,-1.205078 0.362443,-0.431445 1.455357,1.0553 1.90625,0.777344 0.737936,-0.454907 0.258121,-1.291298 0.425781,-1.423828 0.275582,-0.217836 1.202305,0.308565 1.841797,0.521484 0.578863,0.192732 1.249386,0.136046 1.945313,0.496094 1.464276,0.757566 2.99213,1.373334 4.044922,1.277344 1.791768,-0.163365 3.488556,-0.986278 4.58789,-2.169922 0.894981,-0.963618 0.480252,-3.017239 0.388672,-5.046875 -0.04501,-0.997604 -0.0742,-2.753315 -0.40039,-3.572266 C 56.02335,10.531755 55.635374,9.6785816 55.087891,9.4628906 54.255759,9.1350564 52.666667,9.6027036 52.285156,9.2910156 51.556923,8.6960605 51.952354,8.4155277 50.425781,8.015625 50.284281,7.9785574 50.141876,7.9558557 50,7.9453125 Z M 28.46875,23.763672 c 0.09545,-0.0064 0.177364,0.01188 0.244141,0.06445 0.746041,0.587359 0.314674,3.56442 -0.02734,4.5 -0.278597,0.762088 0.02598,1.803877 -0.400391,2.552734 -0.198241,0.348181 -0.586305,0.565962 -0.925781,0.767579 -0.158968,0.09441 -0.977512,-0.131696 -2.195313,-0.515626 -1.307303,-0.412145 -2.154212,-0.254649 -2.83789,0.462891 -0.280659,0.29456 -1.001886,1.818986 -1.914063,2.242188 -1.507668,0.699479 -2.729684,0.259048 -3.214843,1.144531 -0.479421,0.87501 -0.277704,1.97461 -0.97461,2.300781 -0.389184,0.182149 -1.072826,1.097974 -1.458984,1.328125 -0.335836,0.20016 -0.855043,0.506922 -1.503906,0.503906 0,0 -0.03569,-0.707216 0.322265,-1.324218 0.334686,-0.576883 1.055928,-1.05357 1.326172,-1.41211 0.473606,-0.628347 0.838171,-2.127202 1.201172,-2.595703 0.610916,-0.788468 1.83829,-1.641109 2.203125,-2.025391 0.634487,-0.668305 1.407413,-0.946863 2.269531,-1.578124 1.444689,-1.05783 2.715093,-1.928283 3.330078,-2.464844 0.693162,-0.604769 2.264119,-3.27043 2.851563,-3.351563 0.637255,-0.08801 1.291471,-0.571769 1.705078,-0.599609 z m 14.769531,3.302734 c 1.319768,0.02759 2.757569,1.627415 3.789063,2.181641 0.680772,0.365781 1.560819,0.01154 1.953125,0.07617 0.25408,0.04186 0.351589,0.509736 0.138672,0.736328 -0.220885,0.235072 -1.812001,0.169142 -2.88086,-0.0918 -1.103595,-0.269414 -2.311594,-0.863809 -3.414062,-0.841797 -1.721635,0.03438 -2.628907,0.960938 -2.628907,0.960938 -0.666929,-1.066987 2.638672,-2.976563 2.638672,-2.976563 0.133412,-0.03369 0.26777,-0.04778 0.404297,-0.04492 z m -11.607422,7.085938 c 0.481027,-0.0037 0.825529,0.554576 1.021485,1.017578 0.123105,0.290873 0.549246,0.270357 0.875,0.810547 0.414308,0.687034 -0.167661,1.402314 -0.417969,1.708984 -0.30575,0.374595 -0.721186,0.981637 -1.044922,2.070313 -0.389679,1.310432 -0.385735,3.596453 -0.314453,3.615234 0.485312,0.127865 1.247029,-1.394789 1.962891,-0.519531 0.317269,0.387913 -0.226937,0.910284 -0.4375,1.130859 -0.300271,0.314546 -0.412083,0.34505 -0.808594,1.378906 -0.459322,1.19763 -0.10552,2.390857 -0.351563,2.658204 -0.113603,0.123438 -0.492895,0.187709 -0.732422,0.347656 -0.201619,0.134635 -0.40183,0.04426 -0.511718,0.08203 -0.156237,0.0537 -0.655837,0.193365 -0.75,-0.0918 -0.104223,-0.315618 -0.19415,-0.646375 -0.285156,-0.851562 -0.08444,-0.190385 -0.136151,-0.292643 -0.189454,-0.439454 -0.08441,-0.232495 0.03576,-0.306353 0.175782,-0.533203 0.160564,-0.260137 0.606285,-0.165676 0.875,-0.273437 1.025348,-0.41119 -0.353589,-1.915126 -0.355469,-3.052734 -9.67e-4,-0.58488 -0.149668,-2.052506 -0.0293,-3.341797 0.126227,-1.351999 0.5035,-2.263656 0.412109,-3.070313 -0.228507,-2.01691 0.104886,-2.640388 0.90625,-2.646484 z m -8.583984,12.259765 c 0.06765,9.8e-4 0.128498,0.0072 0.177734,0.01367 0.120679,0.01575 0.416558,0.755098 0.04687,1.248047 -1.565818,2.087912 -2.067961,4.169008 -1.61914,4.701172 0.197989,0.234755 0.728943,-0.531295 1.574218,-1.197266 0.392725,-0.309417 1.278366,-0.379293 1.783204,-0.589843 0.770894,-0.321513 1.218983,-1.056467 1.720703,-1.839844 0.054,-0.08431 0.414748,0.709396 1.144531,1.230469 0.563071,0.402039 1.490379,0.306092 1.945312,0.59375 1.147335,0.72547 0.846092,2.285526 0.517579,2.402343 -0.770195,0.273876 -2.151033,-0.695622 -2.462891,-0.625 -0.999402,0.22632 -2.148517,0.902055 -2.753906,1.816407 -0.816938,1.233869 -2.780446,2.249407 -3.625,3.289062 -1.012727,1.246675 -1.447396,1.862024 -1.021485,2.390625 0.437246,0.542667 1.085536,1.075709 1.658203,0.523438 0.490021,-0.472569 1.53671,-0.857171 2.503907,-0.664063 0.408343,0.08153 0.267558,1.316686 1.857422,2.431641 2.539148,1.780679 3.342443,3.642512 6.74414,2.705078 1.18045,-0.325306 1.754984,-0.882128 2.302735,-2.013672 0.970396,-2.004645 -0.230267,-1.082888 0.896484,-3.490234 0.802237,-1.714009 6.589638,-4.616899 7.419922,-4.884766 1.323511,-0.426993 5.779804,-3.210285 6.710937,-3.376953 2.558882,-0.458029 5.376805,0.258841 6.242188,2.300781 0.455083,1.073803 -0.565494,2.899159 -1.414063,3.201172 -0.898479,0.319775 -4.051732,-0.829561 -5.269531,-1.213489 -0.671669,-0.211753 -2.132976,1.608834 -4.121094,2.961536 -1.711132,1.164243 -2.34739,1.937459 -4.044921,2.660156 -0.839481,0.357395 -2.087938,0.507305 -2.8125,1.041016 -1.764097,1.299428 -2.08499,2.547291 -3.740235,3.714844 -1.307259,0.922094 -2.611128,2.197973 -2.734375,2.849609 0,0 -1.399464,-1.067003 -2.427734,-1.109375 0,0 -0.550766,-1.756036 -1.355469,-2.298828 -0.319152,-0.215276 -0.832147,0.829565 -1.494141,0.705078 -0.659535,-0.124024 -0.437247,-1.349043 -1.232422,-1.621094 -1.108876,-0.379377 -1.224595,1.047671 -2.923828,0.3125 -0.352913,-0.152688 -1.282492,-0.378159 -1.603515,-1.027344 -0.300299,-0.607277 -0.221094,-1.224985 -0.738281,-1.474609 -0.65064,-0.314036 -0.430695,0.590603 -1.730469,0.419922 0,0 -1.285968,-0.155829 -1.828125,-0.224609 -0.527935,-0.06698 -1.37954,-0.616891 -1.4375,-0.08789 -0.04889,0.446221 -0.323696,3.448271 -1.445313,4.833984 -1.240681,1.532812 -2.086826,0.278213 -2.439453,0.0332 -0.607261,-0.421936 0.391821,-5.43106 1.277344,-7.724609 0.774158,-2.005108 2.906905,-5.090825 4.783203,-7.5 1.148304,-1.474427 2.06931,-3.040314 2.900391,-4.228516 0.712454,-1.018602 1.594813,-1.194359 2.068359,-1.1875 z m 35.458984,17.570313 c 0.445673,-0.0056 0.810994,0.0083 1.039063,0.05078 1.237586,0.0258 0.832842,1.332185 0.818359,1.523438 -0.04782,0.631462 -0.170768,0.859217 -0.667969,1.091797 -0.836612,0.391343 -3.93386,-0.397616 -6.287109,-0.07617 -2.160423,0.295106 -4.866244,1.060105 -5.951172,2.080078 -1.080885,1.016172 -0.787853,1.957137 -1.234375,2.046875 -0.642108,0.129045 -1.839268,0.690774 -1.771484,1.007812 0.153575,0.718301 1.680313,1.410838 2.736328,1.326172 2.499275,-0.200379 3.172063,-1.560791 3.800781,-1.660156 1.623133,-0.256527 4.334401,0.36927 4.84961,0.833984 0.348517,0.31436 0.814186,0.44509 0.759765,0.814453 -0.02344,0.159112 -0.0169,0.606268 -0.324218,0.925782 -0.254411,0.264504 -0.779014,0.406255 -1.22461,0.529296 -0.882698,0.243741 -2.101593,-0.701524 -3.324219,-0.625 -2.20051,0.137732 -4.30223,0.696582 -5.082031,0.873047 -0.890392,0.201493 -3.198597,0.541471 -4.11914,0.441407 -1.453348,-0.157981 -2.812513,1.074907 -3.826172,2.318359 -0.226688,0.278076 -2.555541,2.658718 -3.025391,2.751953 -0.789108,0.156586 -1.120731,0.03228 -1.382813,0.373047 -0.311166,0.404587 0.827177,1.402927 0.763672,1.703125 -0.07425,0.35098 -0.740866,0.630177 -1.27539,0.931641 -0.584848,0.329846 -1.362831,0.575726 -1.550782,0.53125 -1.686485,-0.399092 -1.958297,-1.425445 -2.789062,-1.634766 -0.876735,-0.220904 -2.115615,-0.537274 -3.162109,-0.578125 -1.655906,-0.06464 -3.025231,0.202517 -3.203125,-0.101562 -0.292358,-0.499742 2.076941,-3.066036 4.982422,-4.482422 0.473348,-0.230752 1.169494,-0.72067 1.902343,-1.464844 0.560359,-0.569018 0.963225,-1.228851 1.392578,-1.195313 0.580538,0.04535 1.127307,-0.749686 1.15625,-1.230468 0.0245,-0.407007 0.785487,0.752025 0.802735,1.039062 0.03841,0.63916 -2.162611,1.336451 -1.578125,1.896485 1.002814,0.960852 2.997492,-1.174034 4.316406,-2.486329 0.260516,-0.259209 3.278991,-2.04347 6.345703,-1.09375 0,0 -0.71041,-1.284343 0.892578,-2.175781 0.211566,-0.117653 2.387666,-1.77806 3.064453,-2.417969 0.768948,-0.727049 0.302442,-1.72793 0.923829,-2.339843 0.352826,-0.347452 4.062554,-1.04935 6.634765,-1.236328 1.205208,-0.08761 3.26064,-0.2743 4.597656,-0.291016 z"
       sodipodi:nodetypes="sssssccssssssssssssccccccccssssssssssssssssscsssssssssssscsssssccssscsssssssssssssssccsssssscsssssscsssscssssssssssssssscssscscscscscssscsssssscsscscssssssssssssscssssssssssssssssssssssssssscsssssssscsssssccccssssssssssssssssssscsssssssssssssssssssssssssssssccsssssscssssssssccssssssssssssssssssssssssssssssscssssc" />
    <path
       id="path2"
       style="display:inline;fill:#ff0000;fill-opacity:1;stroke:none;stroke-width:0;stroke-linecap:round;stroke-dasharray:none;stroke-opacity:1"
       d="m 81.691118,23.144659 c 0.02537,-0.893786 0.06813,0.03065 0.795261,-0.93246 0.482806,-0.639494 -0.889856,-1.546191 -0.889856,-1.546191 0,0 1.102129,0.278437 1.945056,0.84885 0.56532,0.382556 1.014053,0.998057 0.935545,1.369782 -0.497428,2.355246 -0.692147,3.736494 1.625004,6.675355 1.44463,1.832235 2.681744,3.954844 2.681744,3.954844 0,0 2.854452,0.971867 4.89914,3.012777 1.575345,1.572434 2.436939,2.223301 4.102232,4.232777 2.815486,3.397393 6.441576,4.599009 6.125526,6.382681 -0.23555,1.329435 -0.8004,1.406034 -0.80012,2.043476 2.6e-4,0.594718 0.81056,1.422311 0.82246,2.17898 0.0146,0.925496 -0.006,3.402962 0.12579,5.429677 0.13089,2.011109 0.22631,3.831419 0.74576,5.064295 0.35311,0.8381 -0.24391,1.340089 -0.44829,2.070316 -0.38566,1.377871 -2.0253,2.065459 -2.0253,2.065459 0,0 0.53505,-3.308906 -3.363066,-8.273208 -1.566281,-1.994679 -3.211061,-2.919233 -3.574156,-3.53521 -0.759877,-1.289101 0.14076,-1.710755 -0.748024,-2.245321 -0.766796,-0.461195 -1.928687,0.423969 -2.865599,-0.543129 -1.224506,-1.263958 -1.549641,-1.363773 -2.424983,-2.301386 -1.27973,-1.370769 -2.943262,-3.418202 -3.774301,-4.317739 -0.76026,-0.822924 0.571045,2.302804 0.03756,1.326681 -0.112084,-0.20508 1.540097,1.019853 1.949698,2.92487 0.05527,0.257051 1.237188,1.797524 3.602624,3.483306 0.251064,0.178927 0.846425,0.413688 1.280204,0.69779 1.03738,0.679428 2.126458,1.538328 2.417969,1.848924 0.591843,0.63059 1.207562,1.029066 1.685907,1.710521 0.873822,1.244858 1.289216,2.671008 0.263193,2.784917 -1.190221,0.132138 -0.878669,-0.931457 -2.163547,-1.074199 -1.433547,-0.159258 -2.865055,0.405517 -3.412553,0.221793 -1.202462,-0.40351 -4.880532,-3.338366 -5.727235,-3.102915 -2.113159,0.587626 -1.434667,0.38179 -2.866959,-0.288169 -1.199697,-0.561161 -2.353376,-1.075098 -2.348872,-1.554065 0.01795,-1.908958 1.544195,-1.165067 2.456936,-4.566542 0.382924,-1.427026 -0.02804,-3.148273 -0.133039,-5.667058 -0.08866,-2.126722 -0.62456,-8.820322 -0.727894,-11.786503 -0.147956,-4.247059 0.505792,-5.406005 0.403434,-6.533471 -0.08618,-0.949287 -0.636488,-1.02967 -0.607229,-2.060505 z"
       sodipodi:nodetypes="sscssscsssssssscssssssssssssssssssssszss"
       inkscape:label="p3" />
    <path
       id="rect1"
       style="display:inline;fill:#ff0000;fill-opacity:1;stroke:none;stroke-width:0;stroke-linecap:round;stroke-dasharray:none;stroke-opacity:1"
       d="m 57.854497,2.386742 c 0.718821,-0.5262812 2.820668,0.016986 3.671432,-0.4290737 2.056963,-1.07847578 1.836014,-0.928205 3.81187,-0.901678 1.330641,0.017865 8.153117,2.67526 4.589291,5.933768 0,0 3.338721,0.2821452 5.613747,0.7368304 1.846865,0.3691133 6.478424,1.9030414 8.591836,3.2776443 3.21294,2.089758 6.150114,5.328884 8.539643,9.277148 4.338341,7.168322 4.018443,13.169493 4.018443,13.169493 0,0 -6.27297,-4.69962 -8.792214,-8.564694 C 83.683347,18.41914 80.960503,20.32943 80.960503,20.32943 71.730831,5.1778885 63.690134,6.8707444 60.236158,5.2082076 59.10487,4.6636734 56.796755,3.1611627 57.854497,2.386742 Z"
       sodipodi:nodetypes="ssssssscssss"
       inkscape:label="p2" />
    <path
       id="path1"
       style="display:inline;fill:#ff0000;fill-opacity:1;stroke:none;stroke-width:0;stroke-linecap:round;stroke-dasharray:none;stroke-opacity:1"
       d="m 38.308101,7.4657265 c 0.564912,-0.7725347 1.667974,-0.2446993 2.840325,-1.5987794 1.790908,-2.0685223 6.792194,-4.89703043 7.598023,-5.02642923 1.868524,-0.3000449 2.303619,1.10819703 3.173332,1.03947353 1.508201,-0.1191758 2.109882,-1.21485195 2.843391,-0.6175654 1.327613,1.0810584 2.29391,2.0362531 1.77497,3.3475397 0,0 -1.34843,-0.3713206 -1.709672,-0.039113 -0.136092,0.125154 -0.585217,0.8267219 -1.803017,0.4427932 -3.607498,-1.137315 -9.156117,1.4583173 -12.54292,3.5571647 -1.463701,0.9070751 -1.60539,0.6639794 -2.870943,1.2238742 0,0 -0.07729,-1.270763 0.696511,-2.3289583 z"
       sodipodi:nodetypes="sssssssssss"
       inkscape:label="p1" />
  </g>
</svg>
