<?xml version="1.0" encoding="UTF-8" standalone="no"?>
<svg
   version="1.1"
   id="svg905"
   width="45.748196mm"
   height="46.562508mm"
   viewBox="0 0 172.90657 175.98428"
   sodipodi:docname="sudo_make_me_a_sandwich.svg"
   inkscape:version="1.4 (1:1.4+202410161351+e7c3feb100)"
   inkscape:export-filename="/home/thomas/Documents/dev/own/embroidery/sudo_make_me_a_sandwich.png"
   inkscape:export-xdpi="96"
   inkscape:export-ydpi="96"
   xmlns:inkscape="http://www.inkscape.org/namespaces/inkscape"
   xmlns:sodipodi="http://sodipodi.sourceforge.net/DTD/sodipodi-0.dtd"
   xmlns="http://www.w3.org/2000/svg"
   xmlns:svg="http://www.w3.org/2000/svg"
   xmlns:rdf="http://www.w3.org/1999/02/22-rdf-syntax-ns#"
   xmlns:cc="http://creativecommons.org/ns#"
   xmlns:dc="http://purl.org/dc/elements/1.1/">
  <metadata
     id="metadata911">
    <rdf:RDF>
      <cc:Work
         rdf:about="">
        <dc:format>image/svg+xml</dc:format>
        <dc:type
           rdf:resource="http://purl.org/dc/dcmitype/StillImage" />
        <dc:title />
      </cc:Work>
    </rdf:RDF>
  </metadata>
  <defs
     id="defs909" />
  <sodipodi:namedview
     pagecolor="#ffffff"
     bordercolor="#666666"
     borderopacity="1"
     objecttolerance="10"
     gridtolerance="10"
     guidetolerance="10"
     inkscape:pageopacity="0"
     inkscape:pageshadow="2"
     inkscape:window-width="1920"
     inkscape:window-height="1003"
     id="namedview907"
     showgrid="false"
     inkscape:zoom="2.3459901"
     inkscape:cx="1.2787778"
     inkscape:cy="92.924518"
     inkscape:window-x="0"
     inkscape:window-y="40"
     inkscape:window-maximized="1"
     inkscape:current-layer="g913"
     inkscape:document-rotation="0"
     showguides="false"
     inkscape:lockguides="false"
     inkscape:document-units="mm"
     fit-margin-top="0"
     fit-margin-left="0"
     fit-margin-right="0"
     fit-margin-bottom="0"
     units="mm"
     inkscape:showpageshadow="2"
     inkscape:pagecheckerboard="0"
     inkscape:deskcolor="#d1d1d1" />
  <g
     inkscape:groupmode="layer"
     inkscape:label="Image"
     id="g913"
     style="display:inline"
     transform="translate(-13.23965,-9.9922776)">
    <g
       id="g1008"
       style="stroke-width:3.77953;stroke-miterlimit:4;stroke-dasharray:none"
       transform="matrix(0.48854214,0,0,0.48854214,6.7715235,5.1106292)"
       inkscape:export-xdpi="96"
       inkscape:export-ydpi="96"
       inkscape:label="alles">
      <g
         id="g915"
         style="stroke-width:3.77953;stroke-miterlimit:4;stroke-dasharray:none"
         inkscape:label="Sessel">
        <path
           style="font-variation-settings:normal;opacity:1;vector-effect:none;fill:none;fill-opacity:1;stroke:#b30000;stroke-width:3.77953;stroke-linecap:round;stroke-linejoin:round;stroke-miterlimit:4;stroke-dasharray:none;stroke-dashoffset:0;stroke-opacity:1;stop-color:#000000;stop-opacity:1"
           d="m 291.81543,349.13232 c -2.2856,-1.38187 -4.31071,-2.98894 -5.44325,-5.36764 -0.37769,-0.76536 0.0359,0.47406 -3.93185,-9.38704 l -3.27709,-6.91343 c -1.76326,-3.27686 -3.71599,-6.41649 -7.27546,-8.39241"
           id="path1181"
           sodipodi:nodetypes="ccccc"
           inkscape:label="Bein" />
        <path
           style="font-variation-settings:normal;opacity:1;vector-effect:none;fill:none;fill-opacity:1;stroke:#b30000;stroke-width:3.77953;stroke-linecap:round;stroke-linejoin:round;stroke-miterlimit:4;stroke-dasharray:none;stroke-dashoffset:0;stroke-opacity:1;stop-color:#000000;stop-opacity:1"
           d="m 260.72565,303.73854 c 1.4947,-1.34768 1.34515,-2.65012 0.92718,-3.94518 -2.42106,-1.61679 -4.51928,-3.35996 -8.53406,-4.35283 -0.74725,-0.27421 -1.4225,-0.54364 -2.93003,-0.86825 -0.59805,-0.88567 -1.12579,-1.74326 -2.3223,-2.868 -4.09493,-0.19445 -10.95357,0.51408 -12.88259,-0.87158 -2.96981,-2.29764 -7.08539,-2.71914 -8.60863,-5.14089 -3.44202,-1.97784 -6.68368,-4.9026 -9.06552,-8.31042 -5.24399,-7.72077 -8.96559,-11.57057 -11.71874,-12.95791 -5.01637,-2.46798 -5.08388,-3.32656 -6.01531,-4.4661 -0.86472,-4.55853 -0.70267,-6.53276 -0.62835,-8.7278"
           id="path1368"
           sodipodi:nodetypes="ccccccccccc"
           inkscape:label="Arm" />
        <path
           style="font-variation-settings:normal;opacity:1;vector-effect:none;fill:none;fill-opacity:1;stroke:#b30000;stroke-width:3.77953;stroke-linecap:round;stroke-linejoin:round;stroke-miterlimit:4;stroke-dasharray:none;stroke-dashoffset:0;stroke-opacity:1;stop-color:#000000;stop-opacity:1"
           d="m 193.85327,250.05695 c 0.67665,7.2639 0.6841,6.67391 0.97743,9.43911 0.0692,1.54436 1.0441,3.64958 1.71469,5.56637 0.64242,1.60435 1.09836,3.24969 0.93525,5.0311 -0.28062,1.50097 0.0572,3.53136 1.01187,6.08987 1.60294,0.90413 2.11097,1.77167 2.62828,2.63951 1.13879,2.24839 1.39111,3.94823 1.8781,5.7933"
           id="path1376"
           sodipodi:nodetypes="ccccccc"
           inkscape:label="Rücken" />
        <path
           style="display:inline;stroke-width:3.77953;stroke-miterlimit:4;stroke-dasharray:none;font-variation-settings:normal;opacity:1;vector-effect:none;fill:none;fill-opacity:1;stroke:#b30000;stroke-linecap:round;stroke-linejoin:round;stroke-dashoffset:0;stroke-opacity:1;stop-color:#000000;stop-opacity:1"
           d="m 218.2301,210.57707 c -2.79014,-4.93146 -4.36882,-5.2927 -6.5133,-8.56921 -3.7173,-4.24246 -4.74111,-4.75634 -6.02221,-5.62638 -3.3707,-1.54057 -6.96703,-1.98127 -10.71121,-1.7012 -4.47995,0.81047 -8.71014,2.34107 -12.66218,4.67365 -4.68974,2.30217 -8.28495,12.026 -8.26584,14.51836 -0.10288,3.97789 0.76474,10.66605 2.08966,15.10383 1.9709,6.54449 6.15126,9.94381 9.59411,14.39298 2.8918,3.04384 6.81533,4.04518 10.40093,5.71549 4.71537,1.47126 5.58898,1.50132 8.06862,2.13386 2.24196,0.48503 4.52242,0.68878 5.91409,0.35824 4.56902,-1.91371 9.58596,-4.60592 11.51576,-8.57326 0.4094,-1.31886 1.47324,-1.41794 2.43093,-10.33066 0.31346,-3.80251 0.34556,-7.61837 -0.82926,-11.49149 -1.11268,-2.24321 -3.63478,-4.13541 -4.1255,-6.03333 -0.66692,-1.05517 -0.11396,-3.14651 -0.8846,-4.57088 z"
           id="path1165"
           sodipodi:nodetypes="cccccccccccccccc"
           inkscape:label="Kopf" />
        <path
           style="display:inline;stroke-width:3.77953;stroke-miterlimit:4;stroke-dasharray:none;font-variation-settings:normal;opacity:1;vector-effect:none;fill:none;fill-opacity:1;stroke:#b30000;stroke-linecap:round;stroke-linejoin:round;stroke-dashoffset:0;stroke-opacity:1;stop-color:#000000;stop-opacity:1"
           d="m 246.70852,354.2104 c 0.59572,4.54751 -0.065,10.17367 1.87167,13.56999 2.42023,0.7266 4.72551,0.50546 7.05784,0.50732 2.0219,-2.43108 1.55382,-9.54099 2.33071,-14.31152"
           id="path1384"
           sodipodi:nodetypes="cccc"
           inkscape:label="Fuss-r" />
        <path
           style="font-variation-settings:normal;opacity:1;vector-effect:none;fill:none;fill-opacity:1;stroke:#b30000;stroke-width:3.77953;stroke-linecap:round;stroke-linejoin:round;stroke-miterlimit:4;stroke-dasharray:none;stroke-dashoffset:0;stroke-opacity:1;stop-color:#000000;stop-opacity:1"
           d="m 158.61676,355.70966 c 0.21976,2.65108 0.29526,5.36661 0.5836,7.91539 0.24513,1.90517 0.92242,4.36782 2.26084,4.52046 3.00895,-0.004 5.30171,-0.70575 5.82865,-2.36866 1.06891,-1.73798 1.32408,-6.86675 1.91999,-11.04634"
           id="path1392"
           sodipodi:nodetypes="ccccc"
           inkscape:label="Fuss-l" />
        <path
           style="display:inline;stroke-width:3.77953;stroke-miterlimit:4;stroke-dasharray:none;font-variation-settings:normal;opacity:1;vector-effect:none;fill:none;fill-opacity:1;stroke:#b30000;stroke-linecap:round;stroke-linejoin:round;stroke-dashoffset:0;stroke-opacity:1;stop-color:#000000;stop-opacity:1"
           d="m 194.77103,291.55721 c 2.2414,-2.95759 6.22181,-4.88379 10.50027,-6.63321 3.88424,-1.31332 8.82312,-2.19814 13.58205,-3.15607 3.72727,0.25406 7.89928,1.12197 10.65835,0.0397 0,0 2.37739,-1.21856 2.72159,-1.50636 0.65228,-0.5454 5.97273,-0.58922 6.62336,-0.5982 1.94856,-0.0269 6.98071,0.6705 8.83071,1.64199 l 8.81177,4.08681 10.28703,4.42116 4.01115,0.83808 c 3.50807,2.24366 4.96831,3.88761 5.46149,5.24836 2.40811,4.18116 -0.0964,6.58821 -0.58754,9.89447 -0.72651,1.76667 -2.16226,4.09811 -7.1516,6.61944 -3.59247,1.2209 -9.00933,2.48219 -12.5508,2.6544 l -8.15347,1.42594 c -4.6178,0.3494 -9.03383,0.88881 -14.30494,0.62296 -8.88698,0.024 -16.73545,0.2009 -23.00131,-0.61548 -2.54359,-0.34826 -5.33604,-0.83223 -8.07529,-3.1288 -3.70036,-2.41682 -7.40579,-4.82851 -9.83576,-8.52876 -2.17921,-2.73462 -2.25284,-5.20508 -2.54606,-7.8052 0.62469,-2.95716 2.81194,-4.73323 4.719,-5.52121"
           id="path1360"
           sodipodi:nodetypes="ccccssccccccccccccccc"
           inkscape:label="Armlehne" />
        <path
           style="display:inline;stroke-width:3.77953;stroke-miterlimit:4;stroke-dasharray:none;font-variation-settings:normal;opacity:1;vector-effect:none;fill:none;fill-opacity:1;stroke:#b30000;stroke-linecap:round;stroke-linejoin:round;stroke-dashoffset:0;stroke-opacity:1;stop-color:#000000;stop-opacity:1"
           d="m 194.69082,290.11068 c -1.1771,-2.69126 -2.38626,-3.50711 -2.93835,-8.58602 -0.13726,-1.99517 -0.12744,-3.26018 -0.72108,-7.52097 -0.72785,-3.71359 -1.76309,-7.41742 -3.42657,-11.10128 -1.23382,-3.45663 -2.99618,-5.71555 -3.70113,-10.37064 -0.3174,-2.20318 0.22371,-2.50685 -1.23724,-7.24019 -1.01892,-1.86768 -1.59113,-3.58583 -4.00197,-5.91942 -1.95131,-1.85966 -3.41389,-3.76215 -6.46587,-5.52536 -3.57571,-1.8812 -7.94771,-2.74928 -12.96777,-3.96179 -2.92226,-0.65338 -6.64836,-0.84925 -10.54021,-0.30608 -1.92664,0.36438 -5.22635,2.91724 -5.41007,8.21716 0.10981,8.1922 1.93597,17.23333 1.80522,22.0776 l 0.15303,9.94836 c -0.0296,4.24105 1.01622,9.37363 1.63587,14.15291 0.55176,5.62082 -0.40082,9.88191 -0.1671,11.19627 0.13632,1.42067 0.60251,9.38268 0.38303,12.90674 -0.2161,4.79026 -0.67706,9.59029 0.0611,14.34249 0.50784,3.21571 0.80246,6.96454 0.48961,9.67594 -0.60494,4.21749 -2.04834,11.387 -1.62996,12.87978 0.31308,1.95606 1.31126,5.01531 2.21213,6.31508 0.39753,0.88363 6.13787,3.44886 9.36554,3.51396 3.8503,-0.12609 8.06055,-0.03 11.59355,-0.57263 7.14641,-0.83817 13.94481,-1.62948 20.73301,-2.59315 8.55101,-0.92797 16.25053,-1.32057 23.70968,-1.56203 3.25116,-0.24565 10.37854,0.15847 17.99553,0.64466 4.13686,0.36488 9.2178,0.34681 12.32945,1.12754 1.06528,0.10919 2.1295,0.9889 3.19421,1.51326 l 10.82428,0.61332 c 3.07204,-0.23818 6.05294,-0.52214 7.56779,-2.05819 1.35211,-7.62372 -1.15514,-14.54053 -1.73271,-21.8108 0.004,-3.0962 0.52788,-5.87704 0.0102,-9.28962 -0.20222,-2.06427 -0.93653,-3.19315 -1.60782,-5.27723"
           id="path1173"
           sodipodi:nodetypes="cccccccccccccccccccccccccccccccc"
           inkscape:label="Sessel" />
      </g>
      <path
         style="display:inline;stroke-width:3.77953;stroke-miterlimit:4;stroke-dasharray:none;font-variation-settings:normal;opacity:1;vector-effect:none;fill:none;fill-opacity:1;stroke:#b30000;stroke-linecap:round;stroke-linejoin:round;stroke-dashoffset:0;stroke-opacity:1;stop-color:#000000;stop-opacity:1"
         d="m 180.12461,112.08928 c 0.0404,9.94043 1.16786,19.18028 3.06678,28.09697 2.21644,9.56884 4.82458,18.91049 7.84257,28.43103"
         id="path1077"
         sodipodi:nodetypes="ccc"
         inkscape:label="Sprechblase" />
      <g
         id="g956"
         style="display:inline;stroke-width:3.77953;stroke-miterlimit:4;stroke-dasharray:none"
         inkscape:label="Schrift">
        <path
           style="display:inline;stroke-width:3.77953;stroke-miterlimit:4;stroke-dasharray:none;font-variation-settings:normal;opacity:1;vector-effect:none;fill:none;fill-opacity:1;stroke:#b30000;stroke-linecap:round;stroke-linejoin:round;stroke-dashoffset:0;stroke-opacity:1;stop-color:#000000;stop-opacity:1"
           d="m 332.93364,98.434067 -0.0736,-1.048491"
           id="path1225"
           inkscape:label="Punkt" />
        <g
           id="g5"
           inkscape:label="Sandwich">
          <g
             id="g905"
             style="display:inline;stroke-width:3.77953;stroke-miterlimit:4;stroke-dasharray:none"
             inkscape:label="H">
            <path
               style="font-variation-settings:normal;opacity:1;vector-effect:none;fill:none;fill-opacity:1;stroke:#b30000;stroke-width:3.77953;stroke-linecap:round;stroke-linejoin:round;stroke-miterlimit:4;stroke-dasharray:none;stroke-dashoffset:0;stroke-opacity:1;stop-color:#000000;stop-opacity:1"
               d="m 297.26236,96.273321 c 1.01677,-11.156469 0.81212,-11.441064 0.72283,-12.752543 0.0312,-4.793351 -0.61183,-9.217704 -1.20616,-13.668713"
               id="path1101"
               sodipodi:nodetypes="ccc" />
            <path
               style="font-variation-settings:normal;opacity:1;vector-effect:none;fill:none;fill-opacity:1;stroke:#b30000;stroke-width:3.77953;stroke-linecap:round;stroke-linejoin:round;stroke-miterlimit:4;stroke-dasharray:none;stroke-dashoffset:0;stroke-opacity:1;stop-color:#000000;stop-opacity:1"
               d="M 316.8053,95.845867 316.86,82.130182 316.56029,65.118811"
               id="path1157" />
            <path
               style="font-variation-settings:normal;opacity:1;vector-effect:none;fill:none;fill-opacity:1;stroke:#b30000;stroke-width:3.77953;stroke-linecap:round;stroke-linejoin:round;stroke-miterlimit:4;stroke-dasharray:none;stroke-dashoffset:0;stroke-opacity:1;stop-color:#000000;stop-opacity:1"
               d="m 297.98519,83.520778 18.85028,-1.30337"
               id="path1217" />
          </g>
          <path
             style="font-variation-settings:normal;opacity:1;vector-effect:none;fill:none;fill-opacity:1;stroke:#b30000;stroke-width:3.77953;stroke-linecap:round;stroke-linejoin:round;stroke-miterlimit:4;stroke-dasharray:none;stroke-dashoffset:0;stroke-opacity:1;stop-color:#000000;stop-opacity:1"
             d="m 284.55132,72.622904 c -1.9119,-7.392843 -4.68488,-6.502024 -7.22339,-6.652612 -6.94345,0.976013 -10.75619,11.167851 -10.74478,16.112955 -0.15756,2.665087 0.0337,5.585989 0.56613,8.75712 0.46852,3.029076 3.86189,6.417512 5.87866,6.821132 3.89077,0.426393 7.00605,0.0547 10.02755,-0.413497 2.99832,-1.088965 5.68727,-2.942054 7.27761,-7.508638"
             id="path1117"
             sodipodi:nodetypes="ccccccc"
             inkscape:label="C" />
          <path
             style="display:inline;stroke-width:3.77953;stroke-miterlimit:4;stroke-dasharray:none;font-variation-settings:normal;opacity:1;vector-effect:none;fill:none;fill-opacity:1;stroke:#b30000;stroke-linecap:round;stroke-linejoin:round;stroke-dashoffset:0;stroke-opacity:1;stop-color:#000000;stop-opacity:1"
             d="m 248.57482,71.337253 c 1.40952,1.917325 1.81077,5.133198 2.14762,8.432014 0.24658,7.259028 -0.27338,12.207906 -0.78942,17.168583"
             id="path1109"
             sodipodi:nodetypes="ccc"
             inkscape:label="I" />
          <path
             style="font-variation-settings:normal;opacity:1;vector-effect:none;fill:none;fill-opacity:1;stroke:#b30000;stroke-width:3.77953;stroke-linecap:round;stroke-linejoin:round;stroke-miterlimit:4;stroke-dasharray:none;stroke-dashoffset:0;stroke-opacity:1;stop-color:#000000;stop-opacity:1"
             d="m 211.70784,68.026457 c -0.21266,5.924372 -0.48089,11.873667 0.97115,17.051328 l 2.47402,8.066133 c 5.27248,-9.622469 7.59028,-12.374701 9.64792,-14.521998 1.23801,2.4877 2.62908,4.855943 3.51596,7.617675 l 2.04366,7.344505 c 1.88015,-1.512106 4.68508,-3.400435 5.77763,-5.715005 1.74807,-4.16071 1.77998,-7.985499 1.90849,-11.829198 l 0.44651,-12.524207"
             id="path1149"
             sodipodi:nodetypes="ccccccccc"
             inkscape:label="W" />
          <path
             style="display:inline;stroke-width:3.77953;stroke-miterlimit:4;stroke-dasharray:none;font-variation-settings:normal;opacity:1;vector-effect:none;fill:none;fill-opacity:1;stroke:#b30000;stroke-linecap:round;stroke-linejoin:round;stroke-dashoffset:0;stroke-opacity:1;stop-color:#000000;stop-opacity:1"
             d="m 177.9664,93.120049 c 0.21226,-8.090466 0.77716,-16.158853 -1.55527,-24.408648 -0.24653,-2.3118 1.67215,-3.487701 5.34827,-3.74163 7.16291,0.149909 16.11028,0.03576 17.95594,0.972498 1.28316,1.221437 2.72622,2.672958 3.23952,10.272716 -0.45769,7.688214 -6.91346,16.195168 -9.65975,16.916314 -4.00042,0.537347 -8.91547,-0.488624 -13.99101,-1.788907"
             id="path1141"
             sodipodi:nodetypes="ccccccc"
             inkscape:label="D" />
          <path
             style="display:inline;stroke-width:3.77953;stroke-miterlimit:4;stroke-dasharray:none;font-variation-settings:normal;opacity:1;vector-effect:none;fill:none;fill-opacity:1;stroke:#b30000;stroke-linecap:round;stroke-linejoin:round;stroke-dashoffset:0;stroke-opacity:1;stop-color:#000000;stop-opacity:1"
             d="m 142.66662,94.998603 c 0.4544,-9.690743 0.94351,-17.121067 1.51169,-19.401779 0.6095,-3.591849 1.15921,-6.428612 1.62966,-8.264534 6.11237,6.904319 11.77135,14.926181 16.63043,24.919732 1.40803,-6.147244 3.21718,-11.918337 3.01344,-19.576992 l -0.14694,-9.94615"
             id="path1125"
             sodipodi:nodetypes="cccccc"
             inkscape:label="N" />
          <g
             id="g1210"
             style="display:inline;stroke-width:3.77953;stroke-miterlimit:4;stroke-dasharray:none"
             inkscape:label="A">
            <path
               style="font-variation-settings:normal;opacity:1;vector-effect:none;fill:none;fill-opacity:1;stroke:#b30000;stroke-width:3.77953;stroke-linecap:round;stroke-linejoin:round;stroke-miterlimit:4;stroke-dasharray:none;stroke-dashoffset:0;stroke-opacity:1;stop-color:#000000;stop-opacity:1"
               d="m 112.38031,94.782299 c 1.64313,-9.0167 2.20181,-11.577841 2.34836,-11.68567 0.45865,-4.037536 0.99389,-8.619033 1.64022,-13.989701 0.0461,-2.336859 1.37832,-4.058018 2.71801,-5.775581 l 6.29457,8.813381 c 1.50991,2.083988 2.77121,5.654259 4.00879,9.366288 l 2.79924,12.628878"
               id="path1133"
               sodipodi:nodetypes="ccccccc" />
            <path
               style="font-variation-settings:normal;opacity:1;vector-effect:none;fill:none;fill-opacity:1;stroke:#b30000;stroke-width:3.77953;stroke-linecap:round;stroke-linejoin:round;stroke-miterlimit:4;stroke-dasharray:none;stroke-dashoffset:0;stroke-opacity:1;stop-color:#000000;stop-opacity:1"
               d="m 114.72867,83.096629 14.66159,-1.585613"
               id="path1189" />
          </g>
          <path
             style="display:inline;stroke-width:3.77953;stroke-miterlimit:4;stroke-dasharray:none;font-variation-settings:normal;opacity:1;vector-effect:none;fill:none;fill-opacity:1;stroke:#b30000;stroke-linecap:round;stroke-linejoin:round;stroke-dashoffset:0;stroke-opacity:1;stop-color:#000000;stop-opacity:1"
             d="m 86.025682,96.616585 c 1.002039,4.385085 4.469471,4.843255 8.184304,4.907355 3.061297,-0.0644 11.631504,-5.006329 11.647074,-10.765453 0.0883,-5.357248 -4.66561,-12.39523 -7.940482,-12.357951 l -8.873065,-0.144184 c -1.019651,-0.07667 -4.498839,-0.685206 -4.809297,-4.394839 -0.440915,-6.979892 4.815206,-10.8548 7.718334,-10.921318 l 11.68049,0.470253"
             id="path976"
             sodipodi:nodetypes="cccccccc"
             inkscape:label="S" />
        </g>
        <g
           id="g1215"
           style="display:inline;stroke-width:3.77953;stroke-miterlimit:4;stroke-dasharray:none"
           inkscape:label="A">
          <g
             id="g964"
             style="stroke-width:3.77953;stroke-miterlimit:4;stroke-dasharray:none">
            <g
               id="g972"
               style="stroke-width:3.77953;stroke-miterlimit:4;stroke-dasharray:none">
              <path
                 style="fill:none;stroke:#b30000;stroke-width:3.77953;stroke-linecap:round;stroke-linejoin:round;stroke-miterlimit:4;stroke-dasharray:none;stroke-opacity:1"
                 d="m 29.708654,81.96977 2.645573,-9.234206 C 35.444599,61.763587 42.666551,61.000393 44.74171,72.655754 l 1.835848,9.785044 m 0,0 4.053384,21.604482 m -27.406601,0.55758 6.484313,-22.63309 16.868904,0.471028"
                 id="path941"
                 sodipodi:nodetypes="cccccccc" />
            </g>
          </g>
        </g>
        <g
           id="g4"
           inkscape:label="me">
          <g
             id="g900"
             style="display:inline;stroke-width:3.77953;stroke-miterlimit:4;stroke-dasharray:none"
             inkscape:label="E">
            <path
               style="font-variation-settings:normal;opacity:1;vector-effect:none;fill:none;fill-opacity:1;stroke:#b30000;stroke-width:3.77953;stroke-linecap:round;stroke-linejoin:round;stroke-miterlimit:4;stroke-dasharray:none;stroke-dashoffset:0;stroke-opacity:1;stop-color:#000000;stop-opacity:1"
               d="m 365.27345,50.543309 c -1.10809,-0.765938 -3.04285,-1.219294 -3.89077,-1.421735 -3.641,-0.548111 -8.72739,2.164802 -15.16866,1.33099 -1.00904,-2.472177 -1.50857,-5.207645 -1.37201,-8.271825 0.20563,-1.944556 0.10636,-2.916179 1.37095,-8.23986 0.32581,-4.592397 0.28498,-9.11773 -0.76807,-13.457921 l -0.29536,-1.93733"
               id="path1085"
               sodipodi:nodetypes="ccccccc" />
            <path
               style="font-variation-settings:normal;opacity:1;vector-effect:none;fill:none;fill-opacity:1;stroke:#b30000;stroke-width:3.77953;stroke-linecap:round;stroke-linejoin:round;stroke-miterlimit:4;stroke-dasharray:none;stroke-dashoffset:0;stroke-opacity:1;stop-color:#000000;stop-opacity:1"
               d="m 342.82237,17.842848 18.68106,-0.409187"
               id="path1288" />
            <path
               style="font-variation-settings:normal;opacity:1;vector-effect:none;fill:none;fill-opacity:1;stroke:#b30000;stroke-width:3.77953;stroke-linecap:round;stroke-linejoin:round;stroke-miterlimit:4;stroke-dasharray:none;stroke-dashoffset:0;stroke-opacity:1;stop-color:#000000;stop-opacity:1"
               d="m 345.78628,32.748149 8.14478,1.267672"
               id="path1296" />
          </g>
          <path
             style="display:inline;stroke-width:3.77953;stroke-miterlimit:4;stroke-dasharray:none;font-variation-settings:normal;opacity:1;vector-effect:none;fill:none;fill-opacity:1;stroke:#b30000;stroke-linecap:round;stroke-linejoin:round;stroke-dashoffset:0;stroke-opacity:1;stop-color:#000000;stop-opacity:1"
             d="m 308.24827,45.27403 c -0.71387,-4.817661 -0.82101,-9.13879 -0.21,-12.8722 0.93445,-6.342332 0.10617,-12.26101 0.0947,-18.376001 1.48471,0.574795 3.299,2.748558 6.01077,9.276505 1.52605,4.057035 2.75956,9.801166 4.13094,14.750218 4.75686,-17.492735 6.83209,-19.840574 8.73033,-21.740864 3.14248,-1.109696 5.35555,0.240286 6.31099,1.79517 2.79225,4.420407 1.42308,16.696072 2.72257,24.714072"
             id="path1093"
             sodipodi:nodetypes="cccccccc"
             inkscape:label="M" />
        </g>
        <g
           id="g3"
           inkscape:label="make"
           style="display:inline;stroke-width:3.77953;stroke-miterlimit:4;stroke-dasharray:none">
          <g
             id="g895"
             style="display:inline;stroke-width:3.77953;stroke-miterlimit:4;stroke-dasharray:none"
             inkscape:label="E">
            <path
               style="font-variation-settings:normal;opacity:1;vector-effect:none;fill:none;fill-opacity:1;stroke:#b30000;stroke-width:3.77953;stroke-linecap:round;stroke-linejoin:round;stroke-miterlimit:4;stroke-dasharray:none;stroke-dashoffset:0;stroke-opacity:1;stop-color:#000000;stop-opacity:1"
               d="m 282.00051,49.389481 c -5.0772,0.11203 -11.54727,2.080815 -15.23041,0.334513 -1.53731,-1.113485 -1.99137,-2.696666 -2.36598,-4.314294 -0.22045,-1.033204 -0.28726,-4.697409 -0.055,-13.482963 0.15528,-4.148003 0.14784,-8.306792 -0.92169,-12.535981"
               id="path1061"
               sodipodi:nodetypes="ccccc" />
            <path
               style="font-variation-settings:normal;opacity:1;vector-effect:none;fill:none;fill-opacity:1;stroke:#b30000;stroke-width:3.77953;stroke-linecap:round;stroke-linejoin:round;stroke-miterlimit:4;stroke-dasharray:none;stroke-dashoffset:0;stroke-opacity:1;stop-color:#000000;stop-opacity:1"
               d="m 259.10059,19.280403 c 7.35034,-2.509298 7.48903,-1.793844 9.82104,-2.059152 3.25931,0.174807 6.194,0.563416 8.47637,1.38166"
               id="path1261"
               sodipodi:nodetypes="ccc" />
            <path
               style="font-variation-settings:normal;opacity:1;vector-effect:none;fill:none;fill-opacity:1;stroke:#b30000;stroke-width:3.77953;stroke-linecap:round;stroke-linejoin:round;stroke-miterlimit:4;stroke-dasharray:none;stroke-dashoffset:0;stroke-opacity:1;stop-color:#000000;stop-opacity:1"
               d="m 274.0752,31.819064 -9.72608,0.107673"
               id="path1263" />
          </g>
          <g
             id="g890"
             style="display:inline;stroke-width:3.77953;stroke-miterlimit:4;stroke-dasharray:none"
             inkscape:label="K">
            <path
               style="font-variation-settings:normal;opacity:1;vector-effect:none;fill:none;fill-opacity:1;stroke:#b30000;stroke-width:3.77953;stroke-linecap:round;stroke-linejoin:round;stroke-miterlimit:4;stroke-dasharray:none;stroke-dashoffset:0;stroke-opacity:1;stop-color:#000000;stop-opacity:1"
               d="m 237.29437,15.848588 c 1.05986,4.474414 2.12739,8.939842 1.62169,15.249504 -0.20686,5.72785 -1.18506,11.145926 -2.08058,16.597205"
               id="path1069"
               sodipodi:nodetypes="ccc" />
            <path
               style="font-variation-settings:normal;opacity:1;vector-effect:none;fill:none;fill-opacity:1;stroke:#b30000;stroke-width:3.77953;stroke-linecap:round;stroke-linejoin:round;stroke-miterlimit:4;stroke-dasharray:none;stroke-dashoffset:0;stroke-opacity:1;stop-color:#000000;stop-opacity:1"
               d="m 250.7475,20.109822 -11.48002,10.996164 c 4.29207,3.058601 7.80671,6.27907 10.46539,9.677758 1.90873,2.492097 3.9826,4.705848 5.44727,7.946459"
               id="path1245"
               sodipodi:nodetypes="cccc" />
          </g>
          <g
             id="g886"
             style="display:inline;stroke-width:3.77953;stroke-miterlimit:4;stroke-dasharray:none"
             inkscape:label="A">
            <g
               id="g1243"
               style="stroke-width:3.77953;stroke-miterlimit:4;stroke-dasharray:none">
              <path
                 style="font-variation-settings:normal;opacity:1;vector-effect:none;fill:none;fill-opacity:1;stroke:#b30000;stroke-width:3.77953;stroke-linecap:round;stroke-linejoin:round;stroke-miterlimit:4;stroke-dasharray:none;stroke-dashoffset:0;stroke-opacity:1;stop-color:#000000;stop-opacity:1"
                 d="m 202.82869,51.653126 c 1.57428,-6.164723 2.99178,-9.630188 4.44502,-16.955998 1.12154,-4.311588 1.04875,-8.047472 1.53511,-12.052884 1.01849,-3.588325 3.26331,-5.489949 5.60891,-7.252967 1.83602,1.906689 2.81837,3.818087 3.6136,5.720067 1.90865,4.427757 2.51431,8.448368 3.2925,12.522888 l 0.37177,1.60435 3.51589,14.29584"
                 id="path1053"
                 sodipodi:nodetypes="cccccccc" />
            </g>
            <path
               style="font-variation-settings:normal;opacity:1;vector-effect:none;fill:none;fill-opacity:1;stroke:#b30000;stroke-width:3.77953;stroke-linecap:round;stroke-linejoin:round;stroke-miterlimit:4;stroke-dasharray:none;stroke-dashoffset:0;stroke-opacity:1;stop-color:#000000;stop-opacity:1"
               d="m 207.55765,34.622624 13.38033,-0.87949"
               id="path1253"
               sodipodi:nodetypes="cc" />
          </g>
          <path
             style="display:inline;stroke-width:3.77953;stroke-miterlimit:4;stroke-dasharray:none;font-variation-settings:normal;opacity:1;vector-effect:none;fill:none;fill-opacity:1;stroke:#b30000;stroke-linecap:round;stroke-linejoin:round;stroke-dashoffset:0;stroke-opacity:1;stop-color:#000000;stop-opacity:1"
             d="m 165.72251,52.312742 c -0.24816,-2.501373 -0.35016,-5.424984 -0.46098,-8.323123 0.16715,-3.427945 -0.0506,-6.753791 0.92409,-11.248437 0.43498,-4.109939 1.76515,-8.242572 3.28545,-12.380024 1.60394,5.900648 2.81784,8.513935 3.91289,10.125474 2.46289,3.543149 3.68188,5.50862 4.50809,6.975923 0.5364,2.875643 0.27871,6.193488 0.21763,9.401844 1.70381,-5.114679 4.00182,-11.466845 4.2587,-13.568139 l 1.50467,-7.669491 c 1.32844,-3.065136 3.0025,-5.396266 5.22694,-6.558557 1.03037,2.825236 1.62778,5.224769 2.17281,7.5728 l 1.34244,5.550131 c 1.78596,8.226272 1.8057,12.971201 2.70183,19.443567"
             id="path1045"
             sodipodi:nodetypes="ccccccccccccc"
             inkscape:label="M" />
        </g>
        <g
           id="g1"
           inkscape:label="sudo">
          <path
             style="display:inline;stroke-width:3.77953;stroke-miterlimit:4;stroke-dasharray:none;font-variation-settings:normal;opacity:1;vector-effect:none;fill:none;fill-opacity:1;stroke:#b30000;stroke-linecap:round;stroke-linejoin:round;stroke-dashoffset:0;stroke-opacity:1;stop-color:#000000;stop-opacity:1"
             d="m 120.39792,21.588717 c -2.07196,0.697812 -3.67279,3.582727 -5.08914,7.324045 -0.56683,3.586127 -0.76874,7.468851 -0.74939,11.531415 1.09675,6.084945 2.29985,8.730738 5.35843,10.400566 7.20032,0.849139 6.21499,0.07314 8.3567,-0.08204 3.44071,-1.136895 5.88909,-3.832696 8.16905,-6.793055 1.18131,-2.661516 2.73828,-9.899386 2.20144,-13.53009 0.35244,-1.738852 -2.34017,-8.00175 -5.76758,-9.390544 -1.14596,-0.969295 -9.6524,-1.224294 -12.47951,0.539703 z"
             id="path1037"
             sodipodi:nodetypes="ccccccccc"
             inkscape:label="O" />
          <path
             style="display:inline;stroke-width:3.77953;stroke-miterlimit:4;stroke-dasharray:none;font-variation-settings:normal;opacity:1;vector-effect:none;fill:none;fill-opacity:1;stroke:#b30000;stroke-linecap:round;stroke-linejoin:round;stroke-dashoffset:0;stroke-opacity:1;stop-color:#000000;stop-opacity:1"
             d="m 81.551197,20.331383 c 0.356218,7.951985 1.220894,17.270785 -0.520907,25.29628 -0.09966,0.789786 -0.146105,1.474564 -0.82866,3.41456 2.831745,0.890408 6.282787,0.656336 10.081879,-0.209702 5.633948,-2.857567 13.280461,-11.832072 13.230391,-18.187946 -1.18626,-8.851496 -3.844356,-8.058336 -8.776147,-9.620797 -2.769393,-0.545261 -5.703019,-1.252085 -8.30818,-1.635783 -2.51574,-0.368519 -4.993655,-0.281931 -7.469881,-0.175026"
             id="path1029"
             sodipodi:nodetypes="cccccccc"
             inkscape:label="D" />
          <path
             style="display:inline;stroke-width:3.77953;stroke-miterlimit:4;stroke-dasharray:none;font-variation-settings:normal;opacity:1;vector-effect:none;fill:none;fill-opacity:1;stroke:#b30000;stroke-linecap:round;stroke-linejoin:round;stroke-dashoffset:0;stroke-opacity:1;stop-color:#000000;stop-opacity:1"
             d="m 48.447869,21.902362 c 0.327893,7.184598 1.036205,15.732083 1.28682,20.09813 0.470351,5.577885 2.467144,7.659901 5.347454,7.71848 11.031924,1.656455 11.982349,-11.554096 12.610567,-14.368018 0.290391,-4.579837 1.044254,-8.819532 0.871172,-13.73951 -0.339143,-2.197171 -0.886131,-2.924448 -1.394499,-3.92485"
             id="path1021"
             sodipodi:nodetypes="cccccc"
             inkscape:label="U" />
          <path
             style="display:inline;stroke-width:3.77953;stroke-miterlimit:4;stroke-dasharray:none;font-variation-settings:normal;opacity:1;vector-effect:none;fill:none;fill-opacity:1;stroke:#b30000;stroke-linecap:round;stroke-linejoin:round;stroke-dashoffset:0;stroke-opacity:1;stop-color:#000000;stop-opacity:1"
             d="m 38.086027,14.895268 c -1.97414,-1.179781 -4.147268,-3.121881 -9.659518,-3.009085 -2.092295,0.186342 -3.159932,-0.23948 -9.190152,2.29951 -2.277537,1.149932 -4.280128,2.746979 -4.09542,7.900985 0.01,2.79659 1.085059,6.83449 5.105466,8.377142 2.074735,0.279569 6.910457,-0.0711 10.562648,-0.226866 4.741007,0.400285 5.739381,2.288174 6.023499,4.459962 0.0094,1.763829 0.361251,2.014551 -0.757062,8.760191 -1.588541,5.638334 -3.868513,10.207688 -9.248717,9.983956 -4.218954,-0.677234 -7.571421,-3.806268 -9.946921,-9.699714"
             id="path1013"
             sodipodi:nodetypes="cccccccccc"
             inkscape:label="S" />
        </g>
      </g>
    </g>
  </g>
</svg>
